<svg xmlns="http://www.w3.org/2000/svg" viewBox="0 0 746.77 207.29" role="img"><title>Antler</title><path fill="#ef4747" d="M0 0h206.62v207.29H0zm153.72 152.65l-42.48-97.34H95.45l-42.52 97.34h17.39l32.7-77 32.73 77zM300.51 55.62h16.71v96.67h-14.26l-53.27-68.73v68.73h-16.71V55.62h15.72l51.81 66.87V55.62M348.98 71.4h30.62v80.89h17.15V71.4h30.61V55.62h-78.38V71.4zM476.12 55.62H459.1v96.67h67.83v-15.44h-50.81V55.62zM720.65 115.73c13.54-3.86 23.06-13.4 23.06-29.25v-.29c0-8.45-2.8-15.62-8-20.85-6.23-6.25-15.74-9.72-27.89-9.72h-43.08v96.67h17v-33.67H703l23.74 33.67h20zm-38.94-12.13V71.16h24.73c12.56 0 20 5.62 20 16v.24c0 9.79-7.74 16.18-19.9 16.18zM558.44 70.86v81.43h71.65v-15.16h-56.52v-25.97h43.32V96.01h-43.32V70.86h56.52V55.62h-71.65v15.24z"/><path fill="#fff" d="M103.02 75.65l32.73 77h17.97l-42.48-97.34H95.45l-42.52 97.34h17.39l32.7-77z"/></svg>
