<svg xmlns="http://www.w3.org/2000/svg" viewBox="0 0 226 54" role="img"><title>Antler</title><g fill="#ED4747" fill-rule="evenodd"><path d="M217.722 30.655c4.291-1.198 7.308-4.158 7.308-9.077v-.09c0-2.622-.888-4.848-2.535-6.471-1.974-1.94-4.989-3.017-8.84-3.017H200v30h5.39V31.552h6.746L219.661 42H226l-8.278-11.345zM205.38 26.89V16.823h7.838c3.981 0 6.34 1.744 6.34 4.966v.075c0 3.036-2.454 5.021-6.308 5.021l-7.87.005zM166 16.73V42h23v-4.704h-18.143v-8.06h13.905v-4.701h-13.905V16.73H189V12h-23v4.73M140.269 12H135v30h21v-4.79h-15.731V12M100 16.897h9.766V42h5.472V16.897H125V12h-25v4.897M84.843 12H90v30h-4.401L69.158 20.671V42H64V12h4.852l15.991 20.752V12M37.17 42.215L26.903 18.144 16.65 42.214h-5.454l13.333-30.429h4.954l13.321 30.43H37.17zM0 54h54V0H0v54z"/></g></svg>
