<svg xmlns="http://www.w3.org/2000/svg" viewBox="0 0 250 250"><path d="M78.62 227c94.34 0 145.94-78.106 145.94-145.84 0-2.218 0-4.427-.15-6.625A104.32 104.32 0 00250 48.003a102.435 102.435 0 01-29.46 8.065 51.44 51.44 0 0022.55-28.35 102.833 102.833 0 01-32.57 12.44c-15.9-16.894-41.163-21.029-61.625-10.086-20.461 10.943-31.032 34.243-25.785 56.834A145.654 145.654 0 0117.4 33.353c-13.614 23.42-6.66 53.382 15.88 68.423A50.937 50.937 0 0110 95.361v.65c.007 24.398 17.218 45.413 41.15 50.245a51.244 51.244 0 01-23.16.879c6.72 20.88 25.976 35.184 47.92 35.595a102.965 102.965 0 01-63.7 21.985 104.481 104.481 0 01-12.21-.74 145.283 145.283 0 0078.62 22.985" fill="#1da1f2" fill-rule="nonzero"/></svg>
